<svg xmlns="http://www.w3.org/2000/svg" viewBox="0 0 28 22.05"><title>academy</title><g id="Layer_2" data-name="Layer 2"><g id="Layer_1-2" data-name="Layer 1"><path d="M27.7,6.28,14.44.1a1.018,1.018,0,0,0-.88,0L.3,6.28a.526.526,0,0,0,0,.95l6.04,2.82v8.33c0,1.48,3.43,3.67,7.66,3.67s7.66-2.19,7.66-3.67V10.05l2.56-1.2v4.39a1.21,1.21,0,1,0,1.3,0V8.25L27.7,7.23A.526.526,0,0,0,27.7,6.28Zm-8.69,11.6A8.276,8.276,0,0,1,14,19.4a8.276,8.276,0,0,1-5.01-1.52v-6.6l4.57,2.13a1.018,1.018,0,0,0,.88,0l4.57-2.13Zm.59-9.8L14,10.69,8.4,8.08,5.55,6.75,14,2.81l8.45,3.94Z"/></g></g></svg>