<svg xmlns="http://www.w3.org/2000/svg" viewBox="0 0 27.961 27.959"><title>business-growth</title><g id="Layer_2" data-name="Layer 2"><g id="Layer_1-2" data-name="Layer 1"><path d="M27.861.8a1.3,1.3,0,0,0-1.2-.8H19.435a1.3,1.3,0,1,0,0,2.6h4.089l-9.309,9.309L11.188,8.886a1.3,1.3,0,0,0-1.838,0L.523,17.713a1.3,1.3,0,1,0,1.838,1.838l7.908-7.907L13.3,14.666a1.3,1.3,0,0,0,1.838,0L25.361,4.438V8.526a1.3,1.3,0,0,0,2.6,0V1.3A1.3,1.3,0,0,0,27.861.8Z"/><path d="M6.675,27.959H1.3a1.3,1.3,0,0,1-1.3-1.3V22.231a1.3,1.3,0,0,1,1.3-1.3H6.675a1.3,1.3,0,0,1,1.3,1.3v4.428A1.3,1.3,0,0,1,6.675,27.959ZM2.6,25.359H5.375V23.531H2.6Z"/><path d="M26.661,27.959H21.286a1.3,1.3,0,0,1-1.3-1.3v-13.4a1.3,1.3,0,0,1,1.3-1.3h5.375a1.3,1.3,0,0,1,1.3,1.3v13.4A1.3,1.3,0,0,1,26.661,27.959Zm-4.075-2.6h2.775v-10.8H22.586Z"/><path d="M16.668,27.959H11.293a1.3,1.3,0,0,1-1.3-1.3V18.337a1.3,1.3,0,0,1,1.3-1.3h5.375a1.3,1.3,0,0,1,1.3,1.3v8.322A1.3,1.3,0,0,1,16.668,27.959Zm-4.075-2.6h2.775V19.637H12.593Z"/></g></g></svg>