<svg xmlns="http://www.w3.org/2000/svg" viewBox="0 0 27.93 25.05"><title>group-management</title><g id="Layer_2" data-name="Layer 2"><g id="Layer_1-2" data-name="Layer 1"><path d="M20.12,14.87c7.21,0,7.8-2.29,7.81-2.99,0-2-1.84-3.87-4.53-4.65a4.383,4.383,0,0,0,1.1-2.88,4.375,4.375,0,0,0-8.75,0,4.4,4.4,0,0,0,.23,1.35,5.631,5.631,0,0,0-4.04.03,4.014,4.014,0,0,0,.25-1.38A4.375,4.375,0,1,0,4.53,7.23C1.84,8.01,0,9.88,0,11.9c.01.69.6,2.97,7.81,2.97.76,0,1.43-.03,2.05-.08.09.1.19.2.29.3-3.74.91-6.53,3.4-6.53,6.23.01.63.58,3.73,10.38,3.73s10.36-3.1,10.37-3.75c0-2.81-2.78-5.3-6.53-6.21a3.964,3.964,0,0,0,.29-.29C18.74,14.84,19.39,14.87,20.12,14.87Zm5.81-3.61a.7.7,0,0,1-.31.85c-.69.41-2.2.89-5.5.89-.3,0-.58,0-.85-.01a5.267,5.267,0,0,0,.39-2.02,5.616,5.616,0,0,0-.47-2.24c.09,0,.16-.02.24-.02H20.8C23.46,8.74,25.43,10.05,25.93,11.26ZM14,7.22a3.755,3.755,0,1,1-3.77,3.75A3.762,3.762,0,0,1,14,7.22ZM8.72,12.98c-.29.01-.59.02-.91.02-4.72,0-5.75-1.01-5.93-1.25.13-1.42,2.36-3,5.24-3.04H8.49c.11,0,.2.02.31.02a5.786,5.786,0,0,0-.46,2.24A5.364,5.364,0,0,0,8.72,12.98ZM7.81,6.84a2.485,2.485,0,1,1,2.5-2.49A2.5,2.5,0,0,1,7.81,6.84ZM22.48,21.2c-.1.23-1.17,1.97-8.48,1.97-7.29,0-8.38-1.73-8.49-1.96.09-2.15,3.29-4.55,7.54-4.6h1.88C19.21,16.66,22.42,19.07,22.48,21.2ZM17.62,4.35a2.5,2.5,0,1,1,2.5,2.49A2.49,2.49,0,0,1,17.62,4.35Z"/></g></g></svg>