<svg xmlns="http://www.w3.org/2000/svg" viewBox="0 0 23.97 28"><title>LOS-map</title><g id="Layer_2" data-name="Layer 2"><g id="Layer_1-2" data-name="Layer 1"><path d="M23.63,19.88a2.175,2.175,0,0,0-.24-.29,2.346,2.346,0,0,0-.3-.25A2.028,2.028,0,0,0,21.97,19h-1.2V15.5a1.805,1.805,0,0,0-1.8-1.8H13.3V9h1.19a2.006,2.006,0,0,0,2-2V2A2.053,2.053,0,0,0,16.15.88a2.307,2.307,0,0,0-.54-.54A2.079,2.079,0,0,0,14.49,0h-5A2.053,2.053,0,0,0,8.37.34a1.983,1.983,0,0,0-.54.54A2.053,2.053,0,0,0,7.49,2V7a2.053,2.053,0,0,0,.34,1.12,1.982,1.982,0,0,0,.54.54A2.053,2.053,0,0,0,9.49,9H10.7v4.7H5a1.805,1.805,0,0,0-1.8,1.8V19H2a2.053,2.053,0,0,0-1.12.34,2.306,2.306,0,0,0-.54.54A2.053,2.053,0,0,0,0,21v5a2.053,2.053,0,0,0,.34,1.12,2.306,2.306,0,0,0,.54.54A2.053,2.053,0,0,0,2,28H7a2.006,2.006,0,0,0,2-2V21a2.053,2.053,0,0,0-.34-1.12,2.307,2.307,0,0,0-.54-.54A2.053,2.053,0,0,0,7,19H5.8V16.3H18.17V19h-1.2a2.053,2.053,0,0,0-1.12.34,2.307,2.307,0,0,0-.54.54A2.053,2.053,0,0,0,14.97,21v5a2.006,2.006,0,0,0,2,2h5a2.028,2.028,0,0,0,1.12-.34,2.133,2.133,0,0,0,.54-.54A1.974,1.974,0,0,0,23.97,26V21A1.973,1.973,0,0,0,23.63,19.88ZM10.09,6.4V2.6h3.8V6.4ZM6.4,21.6v3.8H2.6V21.6Zm14.97,3.8h-3.8V21.6h3.8Z"/></g></g></svg>