<svg xmlns="http://www.w3.org/2000/svg" viewBox="0 0 28 26.948"><title>my-biz</title><g id="Layer_2" data-name="Layer 2"><g id="Layer_1-2" data-name="Layer 1"><path d="M26,6.2H19.918V4a4,4,0,0,0-4-4H12.082a4,4,0,0,0-4,4V6.2H2a2,2,0,0,0-2,2v16.64a2.112,2.112,0,0,0,2.112,2.112H25.888A2.112,2.112,0,0,0,28,24.836V8.2A2,2,0,0,0,26,6.2ZM10.682,4a1.4,1.4,0,0,1,1.4-1.4h3.835a1.4,1.4,0,0,1,1.4,1.4V6.193H10.682ZM2.6,8.8H25.4v.882a3.4,3.4,0,0,1-3.4,3.4H6a3.4,3.4,0,0,1-3.4-3.4Zm0,15.553V14.619A5.969,5.969,0,0,0,6,15.678h5.5v.28a1.72,1.72,0,0,0,1.72,1.72h1.56a1.72,1.72,0,0,0,1.72-1.72v-.28H22a5.969,5.969,0,0,0,3.4-1.059v9.729Z"/></g></g></svg>