<svg xmlns="http://www.w3.org/2000/svg" viewBox="0 0 28 26.727"><title>Asset 25</title><g id="Layer_2" data-name="Layer 2"><g id="Layer_1-2" data-name="Layer 1"><path d="M19.193,13.224a7.636,7.636,0,1,0-10.385,0C3.755,14.445,0,17.831,0,21.662c.013.853.776,5.066,14,5.066s13.987-4.213,14-5.091C28,17.831,24.245,14.445,19.193,13.224ZM14,2.545A5.091,5.091,0,1,1,8.909,7.636,5.089,5.089,0,0,1,14,2.545Zm0,21.636c-9.838,0-11.3-2.355-11.455-2.66.115-2.915,4.442-6.173,10.182-6.249H15.26c5.778.076,10.105,3.347,10.195,6.236C25.315,21.815,23.864,24.182,14,24.182Z"/></g></g></svg>