<svg xmlns="http://www.w3.org/2000/svg" viewBox="0 0 23 27.64"><title>my-orders</title><g id="Layer_2" data-name="Layer 2"><g id="Layer_1-2" data-name="Layer 1"><path d="M22,1.94H16.89V1a1,1,0,0,0-1-1H7.11a1,1,0,0,0-1,1v.94H1a.99.99,0,0,0-1,1v23.7a1,1,0,0,0,1,1H22a1,1,0,0,0,1-1V2.94A1,1,0,0,0,22,1.94ZM20.34,24.98H2.66V4.6H20.34ZM17,9.64H12a1,1,0,0,1,0-2h5a1,1,0,1,1,0,2Zm0,6H12a1,1,0,0,1,0-2h5a1,1,0,0,1,0,2Zm0,6H12a1,1,0,0,1,0-2h5a1,1,0,0,1,0,2ZM7,6.64a2,2,0,1,1-2,2,2,2,0,0,1,2-2Zm0,6a2,2,0,1,1-2,2,2,2,0,0,1,2-2Zm0,6a2,2,0,1,1-2,2,2,2,0,0,1,2-2Z"/></g></g></svg>