<svg xmlns="http://www.w3.org/2000/svg" viewBox="0 0 26.01 27.88"><title>my-performance</title><g id="Layer_2" data-name="Layer 2"><g id="Layer_1-2" data-name="Layer 1"><path d="M25.56,3.65l-1.1-.74a5.157,5.157,0,0,0-5.85.06l-1.4.97a7.519,7.519,0,0,1-4.3,1.35,7.519,7.519,0,0,1-4.3-1.35L7.28,3.01a5.191,5.191,0,0,0-2.97-.93,5.246,5.246,0,0,0-1.66.27V1.32A1.325,1.325,0,0,0,0,1.32V26.56a1.325,1.325,0,0,0,2.65,0V17.35a5.246,5.246,0,0,1,1.66-.27,5.191,5.191,0,0,1,2.97.93l1.33.93a7.523,7.523,0,0,0,8.6,0l1.4-.97a5.157,5.157,0,0,1,5.85-.06,1.015,1.015,0,0,0,.55.17,1,1,0,0,0,1-1.01V4.48A.982.982,0,0,0,25.56,3.65Zm-2.2,10.94a7.6,7.6,0,0,0-1.78-.21,7.811,7.811,0,0,0-4.49,1.41l-1.4.98a4.877,4.877,0,0,1-5.56,0L8.8,15.84a7.858,7.858,0,0,0-4.49-1.41,7.583,7.583,0,0,0-1.65.18V5.33l.2-.14a2.515,2.515,0,0,1,2.9,0l1.33.93a10.18,10.18,0,0,0,5.82,1.82,10.18,10.18,0,0,0,5.82-1.82l1.39-.98a2.537,2.537,0,0,1,2.87-.03l.37.25Z"/></g></g></svg>