<svg xmlns="http://www.w3.org/2000/svg" viewBox="0 0 28 28"><title>news</title><g id="Layer_2" data-name="Layer 2"><g id="Layer_1-2" data-name="Layer 1"><path d="M26,0H8.31a2.006,2.006,0,0,0-2,2s.01,3.72.01,8.08H2a2.006,2.006,0,0,0-2,2V23.53A4.468,4.468,0,0,0,4.47,28H26a2,2,0,0,0,2-2V2A2,2,0,0,0,26,0ZM2.6,23.53V12.68H6.33V23.55a1.474,1.474,0,0,1-.04.36,1.891,1.891,0,0,1-.26.62.679.679,0,0,1-.13.18.806.806,0,0,1-.12.14,1.5,1.5,0,0,1-.23.2.208.208,0,0,1-.06.04,1.791,1.791,0,0,1-.65.27,1.5,1.5,0,0,1-.37.04A1.874,1.874,0,0,1,2.6,23.53ZM25.4,25.4H8.53a.7.7,0,0,0,.05-.13,3.389,3.389,0,0,0,.15-.41c.04-.14.08-.29.11-.43a2.635,2.635,0,0,0,.06-.39,3.259,3.259,0,0,0,.03-.44V18.66c0-2.245-.01-4.226-.01-6.78v-.01c0-4,0-7.83-.01-9.27H25.4ZM22.7,7.826H11.6a1.3,1.3,0,1,1,0-2.6H22.7a1.3,1.3,0,0,1,0,2.6Zm0,4.978H19.69a1.3,1.3,0,1,1,0-2.6H22.7a1.3,1.3,0,0,1,0,2.6Zm-11.248-2.48h5.055a.508.508,0,0,1,.443.554v6.228a.508.508,0,0,1-.443.554H11.452a.508.508,0,0,1-.443-.554V10.878A.508.508,0,0,1,11.452,10.324ZM22.7,17.78H19.69a1.3,1.3,0,0,1,0-2.6H22.7a1.3,1.3,0,0,1,0,2.6Zm0,4.978H11.6a1.3,1.3,0,0,1,0-2.6H22.7a1.3,1.3,0,0,1,0,2.6Z"/></g></g></svg>