<?xml version="1.0" encoding="utf-8"?>
<!-- Generator: Adobe Illustrator 21.1.0, SVG Export Plug-In . SVG Version: 6.00 Build 0)  -->
<svg version="1.1" xmlns="http://www.w3.org/2000/svg" xmlns:xlink="http://www.w3.org/1999/xlink" x="0px" y="0px"
	 viewBox="0 0 28 28" style="enable-background:new 0 0 28 28;" xml:space="preserve">
<g id="Layer_1">
	<g>
		<path d="M8.4,21.3c0-0.4-0.2-0.8-0.4-1c-0.6-0.6-1.5-0.6-2.1,0l-5.2,5.2c-0.3,0.3-0.4,0.6-0.4,1c0,0.4,0.2,0.8,0.4,1
			C1,27.8,1.4,28,1.8,28s0.8-0.2,1-0.4L8,22.4C8.2,22.1,8.4,21.7,8.4,21.3z"/>
		<path d="M1.7,22.5c0.4,0,0.8-0.2,1-0.4l2.5-2.5c0.6-0.6,0.6-1.5,0-2.1c-0.6-0.6-1.5-0.6-2.1,0L0.7,20c-0.6,0.6-0.6,1.5,0,2.1
			C1,22.4,1.3,22.5,1.7,22.5z"/>
		<path d="M8.6,23l-2.5,2.5c-0.6,0.6-0.6,1.5,0,2.1c0.3,0.3,0.6,0.4,1,0.4c0.4,0,0.8-0.2,1-0.4l2.5-2.5c0.6-0.6,0.6-1.5,0-2.1
			C10.1,22.5,9.2,22.5,8.6,23z"/>
		<path d="M21.5,10.7c1.2-1.2,1.2-3.3,0-4.5C20.2,5,18.2,5,17,6.2c-1.2,1.2-1.2,3.3,0,4.5c0.6,0.6,1.4,0.9,2.3,0.9
			C20,11.7,20.9,11.3,21.5,10.7z M18.5,7.7c0.2-0.2,0.5-0.3,0.8-0.3c0.3,0,0.6,0.1,0.8,0.3c0.4,0.4,0.4,1.1,0,1.5
			c-0.4,0.4-1.1,0.4-1.5,0C18,8.8,18,8.1,18.5,7.7z"/>
		<path d="M27.1,1.1c-0.1-0.1-0.2-0.3-0.4-0.4l-0.1-0.1c-1.8-1-4.3-0.8-7.6,0.8c-2.6,1.2-4.9,2.6-7.8,5.2c-0.8-0.3-1.6-0.3-2.5-0.2
			C7.5,6.7,6.5,7.2,5.7,8l-2.3,2.3C3.1,10.6,3,11,3,11.4c0.1,0.4,0.3,0.7,0.7,0.9l1.8,0.9c-0.1,0.1-0.2,0.3-0.3,0.4
			c-0.1,0.2-0.3,0.5-0.6,1c-0.3,0.5-0.2,1.1,0.2,1.5l6.7,6.7c0.4,0.4,1.1,0.5,1.5,0.2c0.4-0.3,0.7-0.4,1-0.6
			c0.2-0.1,0.3-0.2,0.4-0.3l0.9,1.9c0.2,0.3,0.5,0.6,0.9,0.6c0.1,0,0.1,0,0.2,0c0.3,0,0.6-0.1,0.9-0.3l2.3-2.3
			c0.8-0.8,1.3-1.9,1.5-3.1c0.2-0.9,0.1-1.7-0.2-2.5c2.7-2.9,4-5.2,5.2-7.8C27.9,5.4,28.2,2.9,27.1,1.1z M18.6,17.1
			c0.2,0.3,0.3,0.9,0.2,1.5c-0.1,0.6-0.4,1.3-0.8,1.7l-1.1,1.1l-0.8-1.5c-0.2-0.3-0.4-0.5-0.8-0.6c-0.1,0-0.2-0.1-0.4-0.1
			c-0.2,0-0.4,0.1-0.6,0.2c-0.5,0.3-0.8,0.5-1,0.6c-0.2,0.1-0.5,0.3-0.7,0.4l-5.3-5.3c0.2-0.3,0.3-0.5,0.4-0.7
			c0.1-0.3,0.3-0.6,0.6-1c0.2-0.3,0.2-0.6,0.1-1c-0.1-0.3-0.3-0.6-0.6-0.8l-1.5-0.8l1.1-1.1C7.8,9.4,8.5,9,9.2,8.9
			c0.6-0.1,1.2,0,1.5,0.2c0.5,0.4,1.2,0.3,1.6-0.1c2.9-2.8,5.2-4.2,7.8-5.4c2.4-1.1,4.1-1.3,5-1c0.3,0.9,0.1,2.6-1,5
			c-1.2,2.6-2.6,4.9-5.4,7.8C18.3,15.9,18.2,16.6,18.6,17.1z"/>
	</g>
</g>
<g id="Card_Types">
</g>
<g id="Layer_2">
</g>
</svg>
